<svg xmlns="http://www.w3.org/2000/svg" width="256" height="256" viewBox="0 0 100 100"><rect width="100" height="100" rx="20" fill="#7d6ee7"></rect><path fill="#fff" d="M20.39 56.66L20.39 56.66Q20.08 56.89 19.56 57.07Q19.04 57.25 18.41 57.25L18.41 57.25Q17.69 57.25 17.13 57.02Q16.57 56.80 16.34 56.30L16.34 56.30Q13.91 51.26 12.16 47.08Q10.40 42.89 9.32 40.15L9.32 40.15L9.14 40.15Q9.01 43.52 8.85 46.42Q8.69 49.33 8.51 52.09Q8.33 54.86 8.15 57.70Q7.97 60.53 7.79 63.77L7.79 63.77Q7.52 63.86 7.09 63.95Q6.67 64.04 6.17 64.04L6.17 64.04Q5.18 64.04 4.78 63.64Q4.37 63.23 4.37 62.47L4.37 62.47Q4.37 62.02 4.44 60.53Q4.51 59.05 4.64 56.93Q4.78 54.82 4.93 52.25Q5.09 49.69 5.29 47.03Q5.50 44.38 5.70 41.81Q5.90 39.25 6.08 37.13L6.08 37.13Q6.44 36.82 7.12 36.55Q7.79 36.28 8.65 36.28L8.65 36.28Q10.72 36.28 11.53 37.94L11.53 37.94Q12.38 39.70 13.26 41.65Q14.14 43.61 15.01 45.64Q15.89 47.66 16.72 49.64Q17.56 51.62 18.32 53.42L18.32 53.42L18.50 53.42Q19.49 51.04 20.48 48.72Q21.47 46.40 22.42 44.24Q23.36 42.08 24.22 40.19Q25.07 38.30 25.75 36.73L25.75 36.73Q26.15 36.50 26.78 36.39Q27.41 36.28 27.95 36.28L27.95 36.28Q30.07 36.28 30.38 37.72L30.38 37.72Q30.56 38.53 30.79 40.39Q31.01 42.26 31.24 44.69Q31.46 47.12 31.66 49.91Q31.87 52.70 32.05 55.29Q32.23 57.88 32.36 60.06Q32.50 62.24 32.59 63.50L32.59 63.50Q31.78 64.04 30.70 64.04L30.70 64.04Q30.02 64.04 29.50 63.70Q28.99 63.37 28.90 62.47L28.90 62.47Q28.67 59.18 28.49 55.94Q28.31 52.70 28.15 49.78Q28.00 46.85 27.86 44.40Q27.73 41.95 27.64 40.24L27.64 40.24L27.46 40.24Q26.96 41.50 26.31 43.07Q25.66 44.65 24.78 46.63Q23.90 48.61 22.82 51.10Q21.74 53.60 20.39 56.66ZM55.49 56.66L55.49 56.66Q55.18 56.89 54.66 57.07Q54.14 57.25 53.51 57.25L53.51 57.25Q52.79 57.25 52.23 57.02Q51.67 56.80 51.44 56.30L51.44 56.30Q49.01 51.26 47.26 47.08Q45.50 42.89 44.42 40.15L44.42 40.15L44.24 40.15Q44.11 43.52 43.95 46.42Q43.79 49.33 43.61 52.09Q43.43 54.86 43.25 57.70Q43.07 60.53 42.89 63.77L42.89 63.77Q42.62 63.86 42.19 63.95Q41.77 64.04 41.27 64.04L41.27 64.04Q40.28 64.04 39.88 63.64Q39.47 63.23 39.47 62.47L39.47 62.47Q39.47 62.02 39.54 60.53Q39.61 59.05 39.74 56.93Q39.88 54.82 40.03 52.25Q40.19 49.69 40.39 47.03Q40.60 44.38 40.80 41.81Q41.00 39.25 41.18 37.13L41.18 37.13Q41.54 36.82 42.22 36.55Q42.89 36.28 43.75 36.28L43.75 36.28Q45.82 36.28 46.63 37.94L46.63 37.94Q47.48 39.70 48.36 41.65Q49.24 43.61 50.11 45.64Q50.99 47.66 51.82 49.64Q52.66 51.62 53.42 53.42L53.42 53.42L53.60 53.42Q54.59 51.04 55.58 48.72Q56.57 46.40 57.52 44.24Q58.46 42.08 59.32 40.19Q60.17 38.30 60.85 36.73L60.85 36.73Q61.25 36.50 61.88 36.39Q62.51 36.28 63.05 36.28L63.05 36.28Q65.17 36.28 65.48 37.72L65.48 37.72Q65.66 38.53 65.89 40.39Q66.11 42.26 66.34 44.69Q66.56 47.12 66.76 49.91Q66.97 52.70 67.15 55.29Q67.33 57.88 67.46 60.06Q67.59 62.24 67.69 63.50L67.69 63.50Q66.88 64.04 65.80 64.04L65.80 64.04Q65.12 64.04 64.60 63.70Q64.09 63.37 64.00 62.47L64.00 62.47Q63.77 59.18 63.59 55.94Q63.41 52.70 63.25 49.78Q63.10 46.85 62.96 44.40Q62.83 41.95 62.74 40.24L62.74 40.24L62.56 40.24Q62.06 41.50 61.41 43.07Q60.76 44.65 59.88 46.63Q59.00 48.61 57.92 51.10Q56.84 53.60 55.49 56.66ZM78.71 53.42L78.71 63.68Q78.44 63.77 77.99 63.88Q77.54 64.00 77.00 64.00L77.00 64.00Q75.02 64.00 75.02 62.33L75.02 62.33L75.02 38.39Q75.02 37.67 75.38 37.29Q75.74 36.91 76.51 36.68L76.51 36.68Q77.81 36.28 79.72 36.10Q81.64 35.92 83.44 35.92L83.44 35.92Q89.11 35.92 91.87 38.19Q94.64 40.46 94.64 44.65L94.64 44.65Q94.64 47.75 93.04 49.87Q91.45 51.98 88.21 52.88L88.21 52.88Q89.33 54.32 90.46 55.76Q91.58 57.20 92.59 58.48Q93.61 59.77 94.39 60.80Q95.18 61.84 95.63 62.42L95.63 62.42Q95.45 63.19 94.84 63.64Q94.24 64.09 93.61 64.09L93.61 64.09Q92.84 64.09 92.35 63.73Q91.85 63.37 91.31 62.60L91.31 62.60L84.74 53.42L78.71 53.42ZM78.67 50.36L83.84 50.36Q87.17 50.36 89.06 48.92Q90.95 47.48 90.95 44.65L90.95 44.65Q90.95 41.81 88.97 40.39Q86.99 38.98 83.30 38.98L83.30 38.98Q82.09 38.98 80.85 39.09Q79.61 39.20 78.67 39.38L78.67 39.38L78.67 50.36Z"></path></svg>